<?xml version="1.0" encoding="utf-8"?>
<!-- Generator: Adobe Illustrator 19.0.0, SVG Export Plug-In . SVG Version: 6.00 Build 0)  -->
<svg version="1.1" id="Layer_1" xmlns="http://www.w3.org/2000/svg" xmlns:xlink="http://www.w3.org/1999/xlink" x="0px" y="0px"
	 viewBox="0 0 100 100" style="enable-background:new 0 0 100 100;" xml:space="preserve">
<style type="text/css">
	.st0{fill:#88B04B;}
</style>
<g id="XMLID_1_">
	<polygon id="XMLID_6_" class="st0" points="15.8,77.9 26.1,77.9 49.3,13.6 39,13.6 	"/>
	<polygon id="XMLID_5_" class="st0" points="84.4,23.4 40.6,43.9 40.6,49.3 84.4,68.3 84.4,61.2 51.5,46.5 84.4,30.4 	"/>
	<path id="XMLID_2_" class="st0" d="M50,100C22.4,100,0,77.5,0,50C0,22.4,22.4,0,50,0c27.6,0,50,22.4,50,50
		C100,77.5,77.5,100,50,100z M50,4.4C24.9,4.4,4.4,24.9,4.4,50c0,25.1,20.4,45.6,45.6,45.6c25.1,0,45.6-20.4,45.6-45.6
		C95.5,24.9,75.1,4.4,50,4.4z"/>
</g>
</svg>
